<mxfile host="Electron" modified="2024-07-15T11:50:01.817Z" agent="Mozilla/5.0 (Windows NT 10.0; Win64; x64) AppleWebKit/537.36 (KHTML, like Gecko) draw.io/24.6.4 Chrome/124.0.6367.207 Electron/30.0.6 Safari/537.36" etag="Xx6u9E7K01VyHRYpcEEs" version="24.6.4" type="device">
  <diagram id="C5RBs43oDa-KdzZeNtuy" name="Page-1">
    <mxGraphModel dx="1290" dy="621" grid="1" gridSize="10" guides="1" tooltips="1" connect="1" arrows="1" fold="1" page="1" pageScale="1" pageWidth="827" pageHeight="1169" math="0" shadow="0">
      <root>
        <mxCell id="WIyWlLk6GJQsqaUBKTNV-0" />
        <mxCell id="WIyWlLk6GJQsqaUBKTNV-1" parent="WIyWlLk6GJQsqaUBKTNV-0" />
        <mxCell id="LM_VB-buuSbC90LUnMob-0" style="edgeStyle=orthogonalEdgeStyle;rounded=0;orthogonalLoop=1;jettySize=auto;html=1;entryX=0.5;entryY=0;entryDx=0;entryDy=0;" edge="1" parent="WIyWlLk6GJQsqaUBKTNV-1" source="LM_VB-buuSbC90LUnMob-1" target="LM_VB-buuSbC90LUnMob-13">
          <mxGeometry relative="1" as="geometry" />
        </mxCell>
        <mxCell id="LM_VB-buuSbC90LUnMob-1" value="EVALUATION DE LA MENACE" style="swimlane;whiteSpace=wrap;html=1;" vertex="1" parent="WIyWlLk6GJQsqaUBKTNV-1">
          <mxGeometry x="42" y="140" width="958" height="350" as="geometry">
            <mxRectangle x="42" y="140" width="210" height="30" as="alternateBounds" />
          </mxGeometry>
        </mxCell>
        <mxCell id="LM_VB-buuSbC90LUnMob-35" value="&lt;span style=&quot;color: rgb(61, 100, 172); font-family: Calibri; font-size: 11.29px;&quot;&gt;Recherche de &quot;Readme&quot; sur les bureau utilisateur&lt;/span&gt;" style="shape=process;whiteSpace=wrap;html=1;backgroundOutline=1;" vertex="1" parent="LM_VB-buuSbC90LUnMob-1">
          <mxGeometry x="285" y="170" width="120" height="60" as="geometry" />
        </mxCell>
        <mxCell id="LM_VB-buuSbC90LUnMob-57" style="edgeStyle=orthogonalEdgeStyle;rounded=0;orthogonalLoop=1;jettySize=auto;html=1;entryX=0;entryY=0.5;entryDx=0;entryDy=0;" edge="1" parent="LM_VB-buuSbC90LUnMob-1" source="LM_VB-buuSbC90LUnMob-37" target="LM_VB-buuSbC90LUnMob-52">
          <mxGeometry relative="1" as="geometry" />
        </mxCell>
        <mxCell id="LM_VB-buuSbC90LUnMob-37" value="&lt;p style=&quot;margin: 0px; vertical-align: middle; direction: ltr;&quot;&gt;&lt;font face=&quot;Calibri&quot; color=&quot;#feffff&quot;&gt;&lt;span style=&quot;font-size: 11.29px;&quot;&gt;-Controler si le poste est joignable&lt;br&gt;- Contrôle ragent à jour&lt;br&gt;- Contrôler base à jour&lt;br&gt;&lt;/span&gt;&lt;/font&gt;&lt;/p&gt;" style="shape=document;whiteSpace=wrap;html=1;boundedLbl=1;" vertex="1" parent="LM_VB-buuSbC90LUnMob-1">
          <mxGeometry x="10" y="30" width="178" height="80" as="geometry" />
        </mxCell>
        <mxCell id="LM_VB-buuSbC90LUnMob-38" value="&lt;span style=&quot;color: rgb(61, 100, 172); font-family: Calibri; font-size: 11.29px;&quot;&gt;Extraction des traces&lt;/span&gt;" style="shape=process;whiteSpace=wrap;html=1;backgroundOutline=1;" vertex="1" parent="LM_VB-buuSbC90LUnMob-1">
          <mxGeometry x="140" y="170" width="120" height="60" as="geometry" />
        </mxCell>
        <mxCell id="LM_VB-buuSbC90LUnMob-39" value="&lt;span style=&quot;color: rgb(61, 100, 172); font-family: Calibri; font-size: 11.29px;&quot;&gt;Lister les utilisateurs sur le poste&lt;/span&gt;" style="shape=process;whiteSpace=wrap;html=1;backgroundOutline=1;" vertex="1" parent="LM_VB-buuSbC90LUnMob-1">
          <mxGeometry y="170" width="120" height="60" as="geometry" />
        </mxCell>
        <mxCell id="LM_VB-buuSbC90LUnMob-40" value="" style="edgeStyle=orthogonalEdgeStyle;rounded=0;orthogonalLoop=1;jettySize=auto;html=1;" edge="1" parent="LM_VB-buuSbC90LUnMob-1" source="LM_VB-buuSbC90LUnMob-41" target="LM_VB-buuSbC90LUnMob-39">
          <mxGeometry relative="1" as="geometry" />
        </mxCell>
        <mxCell id="LM_VB-buuSbC90LUnMob-41" value="- Connectés&lt;br&gt;- Ayant un compte dans le /users ou /home" style="shape=document;whiteSpace=wrap;html=1;boundedLbl=1;" vertex="1" parent="LM_VB-buuSbC90LUnMob-1">
          <mxGeometry x="10" y="270" width="120" height="80" as="geometry" />
        </mxCell>
        <mxCell id="LM_VB-buuSbC90LUnMob-42" value="&lt;span style=&quot;color: rgb(61, 100, 172); font-family: Calibri; font-size: 11.29px;&quot;&gt;Extraction des traces&lt;/span&gt;" style="shape=process;whiteSpace=wrap;html=1;backgroundOutline=1;" vertex="1" parent="LM_VB-buuSbC90LUnMob-1">
          <mxGeometry x="430" y="170" width="120" height="60" as="geometry" />
        </mxCell>
        <mxCell id="LM_VB-buuSbC90LUnMob-43" value="&lt;span style=&quot;color: rgb(61, 100, 172); font-family: Calibri; font-size: 11.29px;&quot;&gt;Lister les connexions réseaux en cours&lt;/span&gt;" style="shape=process;whiteSpace=wrap;html=1;backgroundOutline=1;" vertex="1" parent="LM_VB-buuSbC90LUnMob-1">
          <mxGeometry x="580" y="170" width="120" height="60" as="geometry" />
        </mxCell>
        <mxCell id="LM_VB-buuSbC90LUnMob-44" value="&lt;span style=&quot;color: rgb(61, 100, 172); font-family: Calibri; font-size: 11.29px;&quot;&gt;Contrôler les alertes en cours sur le parc&amp;nbsp;&lt;/span&gt;" style="shape=process;whiteSpace=wrap;html=1;backgroundOutline=1;" vertex="1" parent="LM_VB-buuSbC90LUnMob-1">
          <mxGeometry x="430" y="40" width="120" height="60" as="geometry" />
        </mxCell>
        <mxCell id="LM_VB-buuSbC90LUnMob-45" value="&lt;span style=&quot;color: rgb(61, 100, 172); font-family: Calibri; font-size: 11.29px;&quot;&gt;Identifier vulnérabilités présentes sur le poste&lt;/span&gt;" style="shape=process;whiteSpace=wrap;html=1;backgroundOutline=1;" vertex="1" parent="LM_VB-buuSbC90LUnMob-1">
          <mxGeometry x="808" y="150" width="120" height="60" as="geometry" />
        </mxCell>
        <mxCell id="LM_VB-buuSbC90LUnMob-46" value="" style="edgeStyle=orthogonalEdgeStyle;rounded=0;orthogonalLoop=1;jettySize=auto;html=1;" edge="1" parent="LM_VB-buuSbC90LUnMob-1" source="LM_VB-buuSbC90LUnMob-47" target="LM_VB-buuSbC90LUnMob-42">
          <mxGeometry relative="1" as="geometry" />
        </mxCell>
        <mxCell id="LM_VB-buuSbC90LUnMob-47" value="- Activité internet&lt;br&gt;- Processus et fichiers créés, modifiés, etc.&lt;br&gt;- Compte local créé," style="shape=document;whiteSpace=wrap;html=1;boundedLbl=1;" vertex="1" parent="LM_VB-buuSbC90LUnMob-1">
          <mxGeometry x="420" y="270" width="140" height="80" as="geometry" />
        </mxCell>
        <mxCell id="LM_VB-buuSbC90LUnMob-48" value="" style="edgeStyle=orthogonalEdgeStyle;rounded=0;orthogonalLoop=1;jettySize=auto;html=1;" edge="1" parent="LM_VB-buuSbC90LUnMob-1" source="LM_VB-buuSbC90LUnMob-49" target="LM_VB-buuSbC90LUnMob-38">
          <mxGeometry relative="1" as="geometry" />
        </mxCell>
        <mxCell id="LM_VB-buuSbC90LUnMob-49" value="- RAM&lt;br&gt;- logs&lt;br&gt;-Prefetch&lt;br&gt;-etc" style="shape=document;whiteSpace=wrap;html=1;boundedLbl=1;" vertex="1" parent="LM_VB-buuSbC90LUnMob-1">
          <mxGeometry x="140" y="270" width="120" height="80" as="geometry" />
        </mxCell>
        <mxCell id="LM_VB-buuSbC90LUnMob-51" style="edgeStyle=orthogonalEdgeStyle;rounded=0;orthogonalLoop=1;jettySize=auto;html=1;entryX=0;entryY=0.5;entryDx=0;entryDy=0;" edge="1" parent="LM_VB-buuSbC90LUnMob-1" source="LM_VB-buuSbC90LUnMob-52" target="LM_VB-buuSbC90LUnMob-44">
          <mxGeometry relative="1" as="geometry" />
        </mxCell>
        <mxCell id="LM_VB-buuSbC90LUnMob-58" style="edgeStyle=orthogonalEdgeStyle;rounded=0;orthogonalLoop=1;jettySize=auto;html=1;entryX=0.5;entryY=0;entryDx=0;entryDy=0;" edge="1" parent="LM_VB-buuSbC90LUnMob-1" source="LM_VB-buuSbC90LUnMob-52" target="LM_VB-buuSbC90LUnMob-39">
          <mxGeometry relative="1" as="geometry">
            <Array as="points">
              <mxPoint x="320" y="120" />
              <mxPoint x="60" y="120" />
            </Array>
          </mxGeometry>
        </mxCell>
        <mxCell id="LM_VB-buuSbC90LUnMob-59" style="edgeStyle=orthogonalEdgeStyle;rounded=0;orthogonalLoop=1;jettySize=auto;html=1;entryX=0.5;entryY=0;entryDx=0;entryDy=0;" edge="1" parent="LM_VB-buuSbC90LUnMob-1" source="LM_VB-buuSbC90LUnMob-52" target="LM_VB-buuSbC90LUnMob-38">
          <mxGeometry relative="1" as="geometry" />
        </mxCell>
        <mxCell id="LM_VB-buuSbC90LUnMob-60" style="edgeStyle=orthogonalEdgeStyle;rounded=0;orthogonalLoop=1;jettySize=auto;html=1;entryX=0.5;entryY=0;entryDx=0;entryDy=0;" edge="1" parent="LM_VB-buuSbC90LUnMob-1" source="LM_VB-buuSbC90LUnMob-52" target="LM_VB-buuSbC90LUnMob-35">
          <mxGeometry relative="1" as="geometry" />
        </mxCell>
        <mxCell id="LM_VB-buuSbC90LUnMob-61" style="edgeStyle=orthogonalEdgeStyle;rounded=0;orthogonalLoop=1;jettySize=auto;html=1;entryX=0.5;entryY=0;entryDx=0;entryDy=0;" edge="1" parent="LM_VB-buuSbC90LUnMob-1" source="LM_VB-buuSbC90LUnMob-52" target="LM_VB-buuSbC90LUnMob-42">
          <mxGeometry relative="1" as="geometry">
            <Array as="points">
              <mxPoint x="320" y="120" />
              <mxPoint x="490" y="120" />
            </Array>
          </mxGeometry>
        </mxCell>
        <mxCell id="LM_VB-buuSbC90LUnMob-62" style="edgeStyle=orthogonalEdgeStyle;rounded=0;orthogonalLoop=1;jettySize=auto;html=1;entryX=0.5;entryY=0;entryDx=0;entryDy=0;" edge="1" parent="LM_VB-buuSbC90LUnMob-1" source="LM_VB-buuSbC90LUnMob-52" target="LM_VB-buuSbC90LUnMob-43">
          <mxGeometry relative="1" as="geometry">
            <Array as="points">
              <mxPoint x="320" y="120" />
              <mxPoint x="640" y="120" />
            </Array>
          </mxGeometry>
        </mxCell>
        <mxCell id="LM_VB-buuSbC90LUnMob-52" value="Isoler le poste" style="shape=process;whiteSpace=wrap;html=1;backgroundOutline=1;" vertex="1" parent="LM_VB-buuSbC90LUnMob-1">
          <mxGeometry x="260" y="40" width="120" height="60" as="geometry" />
        </mxCell>
        <mxCell id="LM_VB-buuSbC90LUnMob-53" style="edgeStyle=orthogonalEdgeStyle;rounded=0;orthogonalLoop=1;jettySize=auto;html=1;entryX=0.5;entryY=0;entryDx=0;entryDy=0;" edge="1" parent="LM_VB-buuSbC90LUnMob-1" source="LM_VB-buuSbC90LUnMob-54" target="LM_VB-buuSbC90LUnMob-45">
          <mxGeometry relative="1" as="geometry" />
        </mxCell>
        <mxCell id="LM_VB-buuSbC90LUnMob-54" value="&lt;span style=&quot;color: rgb(61, 100, 172); font-family: Calibri; font-size: 11.29px;&quot;&gt;identifier le rôle du poste&lt;/span&gt;" style="shape=process;whiteSpace=wrap;html=1;backgroundOutline=1;" vertex="1" parent="LM_VB-buuSbC90LUnMob-1">
          <mxGeometry x="808" y="40" width="120" height="60" as="geometry" />
        </mxCell>
        <mxCell id="LM_VB-buuSbC90LUnMob-67" style="edgeStyle=orthogonalEdgeStyle;rounded=0;orthogonalLoop=1;jettySize=auto;html=1;entryX=0.5;entryY=1;entryDx=0;entryDy=0;" edge="1" parent="LM_VB-buuSbC90LUnMob-1" source="LM_VB-buuSbC90LUnMob-56" target="LM_VB-buuSbC90LUnMob-45">
          <mxGeometry relative="1" as="geometry" />
        </mxCell>
        <mxCell id="LM_VB-buuSbC90LUnMob-56" value="Ces vulnérabilités peuvent être exploitées dans le cadre de ransomware et orienter l&#39;investigation" style="shape=document;whiteSpace=wrap;html=1;boundedLbl=1;" vertex="1" parent="LM_VB-buuSbC90LUnMob-1">
          <mxGeometry x="758" y="250" width="170" height="80" as="geometry" />
        </mxCell>
        <mxCell id="LM_VB-buuSbC90LUnMob-68" style="edgeStyle=orthogonalEdgeStyle;rounded=0;orthogonalLoop=1;jettySize=auto;html=1;entryX=0;entryY=0.5;entryDx=0;entryDy=0;" edge="1" parent="LM_VB-buuSbC90LUnMob-1" source="LM_VB-buuSbC90LUnMob-64" target="LM_VB-buuSbC90LUnMob-54">
          <mxGeometry relative="1" as="geometry" />
        </mxCell>
        <mxCell id="LM_VB-buuSbC90LUnMob-64" value="&lt;p style=&quot;margin: 0px; vertical-align: middle; direction: ltr;&quot;&gt;&lt;font face=&quot;Calibri&quot; color=&quot;#feffff&quot;&gt;&lt;span style=&quot;font-size: 11.29px;&quot;&gt;- Service web ?&lt;br&gt;- poste de travail ?&lt;br&gt;- AD ?&lt;br&gt;etc.&lt;/span&gt;&lt;/font&gt;&lt;/p&gt;" style="shape=document;whiteSpace=wrap;html=1;boundedLbl=1;" vertex="1" parent="LM_VB-buuSbC90LUnMob-1">
          <mxGeometry x="598" y="30" width="178" height="80" as="geometry" />
        </mxCell>
        <mxCell id="LM_VB-buuSbC90LUnMob-66" value="" style="edgeStyle=orthogonalEdgeStyle;rounded=0;orthogonalLoop=1;jettySize=auto;html=1;" edge="1" parent="LM_VB-buuSbC90LUnMob-1" source="LM_VB-buuSbC90LUnMob-65" target="LM_VB-buuSbC90LUnMob-35">
          <mxGeometry relative="1" as="geometry" />
        </mxCell>
        <mxCell id="LM_VB-buuSbC90LUnMob-65" value="&lt;p style=&quot;margin: 0px; vertical-align: middle; direction: ltr;&quot;&gt;&lt;font face=&quot;Calibri&quot; color=&quot;#feffff&quot;&gt;&lt;span style=&quot;font-size: 11.29px;&quot;&gt;Identifier le ransomware&lt;/span&gt;&lt;/font&gt;&lt;/p&gt;" style="shape=document;whiteSpace=wrap;html=1;boundedLbl=1;" vertex="1" parent="LM_VB-buuSbC90LUnMob-1">
          <mxGeometry x="286.5" y="270" width="117" height="80" as="geometry" />
        </mxCell>
        <mxCell id="LM_VB-buuSbC90LUnMob-12" style="edgeStyle=orthogonalEdgeStyle;rounded=0;orthogonalLoop=1;jettySize=auto;html=1;entryX=0.5;entryY=0;entryDx=0;entryDy=0;" edge="1" parent="WIyWlLk6GJQsqaUBKTNV-1" source="LM_VB-buuSbC90LUnMob-13" target="LM_VB-buuSbC90LUnMob-16">
          <mxGeometry relative="1" as="geometry" />
        </mxCell>
        <mxCell id="LM_VB-buuSbC90LUnMob-13" value="LEVE DE DOUTE" style="swimlane;whiteSpace=wrap;html=1;" vertex="1" parent="WIyWlLk6GJQsqaUBKTNV-1">
          <mxGeometry x="40" y="530" width="748" height="180" as="geometry" />
        </mxCell>
        <mxCell id="LM_VB-buuSbC90LUnMob-14" value="Known issue ?" style="rhombus;whiteSpace=wrap;html=1;" vertex="1" parent="LM_VB-buuSbC90LUnMob-13">
          <mxGeometry x="58" y="60" width="92" height="90" as="geometry" />
        </mxCell>
        <mxCell id="LM_VB-buuSbC90LUnMob-15" value="Cas précédent ?" style="rhombus;whiteSpace=wrap;html=1;" vertex="1" parent="LM_VB-buuSbC90LUnMob-13">
          <mxGeometry x="214" y="60" width="92" height="90" as="geometry" />
        </mxCell>
        <mxCell id="LM_VB-buuSbC90LUnMob-69" value="Exercice en cours ?" style="rhombus;whiteSpace=wrap;html=1;" vertex="1" parent="LM_VB-buuSbC90LUnMob-13">
          <mxGeometry x="374" y="60" width="92" height="90" as="geometry" />
        </mxCell>
        <mxCell id="LM_VB-buuSbC90LUnMob-16" value="ACTIONS / RECOMMANDATIONS" style="swimlane;whiteSpace=wrap;html=1;" vertex="1" parent="WIyWlLk6GJQsqaUBKTNV-1">
          <mxGeometry x="40" y="760" width="1190" height="350" as="geometry" />
        </mxCell>
        <mxCell id="LM_VB-buuSbC90LUnMob-70" value="&lt;span style=&quot;color: rgb(61, 100, 172); font-family: Calibri; font-size: 11.29px;&quot;&gt;Maintenir Isolation du poste&lt;/span&gt;" style="shape=process;whiteSpace=wrap;html=1;backgroundOutline=1;" vertex="1" parent="LM_VB-buuSbC90LUnMob-16">
          <mxGeometry x="34" y="150" width="120" height="60" as="geometry" />
        </mxCell>
        <mxCell id="LM_VB-buuSbC90LUnMob-71" value="&lt;span style=&quot;color: rgb(61, 100, 172); font-family: Calibri; font-size: 11.29px;&quot;&gt;Désactivation les comptes présents sur le poste&lt;/span&gt;" style="shape=process;whiteSpace=wrap;html=1;backgroundOutline=1;" vertex="1" parent="LM_VB-buuSbC90LUnMob-16">
          <mxGeometry x="220" y="150" width="120" height="60" as="geometry" />
        </mxCell>
        <mxCell id="LM_VB-buuSbC90LUnMob-72" value="&lt;span style=&quot;color: rgb(61, 100, 172); font-family: Calibri; font-size: 11.29px;&quot;&gt;Analyse des traces réseaux&lt;/span&gt;" style="shape=process;whiteSpace=wrap;html=1;backgroundOutline=1;" vertex="1" parent="LM_VB-buuSbC90LUnMob-16">
          <mxGeometry x="410" y="150" width="120" height="60" as="geometry" />
        </mxCell>
        <mxCell id="LM_VB-buuSbC90LUnMob-73" value="&lt;span style=&quot;color: rgb(61, 100, 172); font-family: Calibri; font-size: 11.29px;&quot;&gt;Avertir les services connexes&lt;/span&gt;" style="shape=process;whiteSpace=wrap;html=1;backgroundOutline=1;" vertex="1" parent="LM_VB-buuSbC90LUnMob-16">
          <mxGeometry x="600" y="150" width="120" height="60" as="geometry" />
        </mxCell>
        <mxCell id="LM_VB-buuSbC90LUnMob-75" value="" style="edgeStyle=orthogonalEdgeStyle;rounded=0;orthogonalLoop=1;jettySize=auto;html=1;" edge="1" parent="LM_VB-buuSbC90LUnMob-16" source="LM_VB-buuSbC90LUnMob-76" target="LM_VB-buuSbC90LUnMob-70">
          <mxGeometry relative="1" as="geometry" />
        </mxCell>
        <mxCell id="LM_VB-buuSbC90LUnMob-76" value="le temps de réaliser l&#39;analyse complète des traces" style="shape=document;whiteSpace=wrap;html=1;boundedLbl=1;" vertex="1" parent="LM_VB-buuSbC90LUnMob-16">
          <mxGeometry x="34" y="250" width="120" height="80" as="geometry" />
        </mxCell>
        <mxCell id="LM_VB-buuSbC90LUnMob-77" value="" style="edgeStyle=orthogonalEdgeStyle;rounded=0;orthogonalLoop=1;jettySize=auto;html=1;" edge="1" parent="LM_VB-buuSbC90LUnMob-16" source="LM_VB-buuSbC90LUnMob-78" target="LM_VB-buuSbC90LUnMob-71">
          <mxGeometry relative="1" as="geometry" />
        </mxCell>
        <mxCell id="LM_VB-buuSbC90LUnMob-78" value="Pour eviter toute latéralisation de l&#39;attaque" style="shape=document;whiteSpace=wrap;html=1;boundedLbl=1;" vertex="1" parent="LM_VB-buuSbC90LUnMob-16">
          <mxGeometry x="220" y="250" width="120" height="80" as="geometry" />
        </mxCell>
        <mxCell id="LM_VB-buuSbC90LUnMob-79" style="edgeStyle=orthogonalEdgeStyle;rounded=0;orthogonalLoop=1;jettySize=auto;html=1;entryX=0.5;entryY=0;entryDx=0;entryDy=0;exitX=0.5;exitY=1;exitDx=0;exitDy=0;" edge="1" parent="LM_VB-buuSbC90LUnMob-16" source="LM_VB-buuSbC90LUnMob-84" target="LM_VB-buuSbC90LUnMob-70">
          <mxGeometry relative="1" as="geometry" />
        </mxCell>
        <mxCell id="LM_VB-buuSbC90LUnMob-80" style="edgeStyle=orthogonalEdgeStyle;rounded=0;orthogonalLoop=1;jettySize=auto;html=1;entryX=0.5;entryY=0;entryDx=0;entryDy=0;exitX=0.5;exitY=1;exitDx=0;exitDy=0;" edge="1" parent="LM_VB-buuSbC90LUnMob-16" source="LM_VB-buuSbC90LUnMob-84" target="LM_VB-buuSbC90LUnMob-71">
          <mxGeometry relative="1" as="geometry" />
        </mxCell>
        <mxCell id="LM_VB-buuSbC90LUnMob-81" style="edgeStyle=orthogonalEdgeStyle;rounded=0;orthogonalLoop=1;jettySize=auto;html=1;entryX=0.5;entryY=0;entryDx=0;entryDy=0;" edge="1" parent="LM_VB-buuSbC90LUnMob-16" source="LM_VB-buuSbC90LUnMob-84" target="LM_VB-buuSbC90LUnMob-72">
          <mxGeometry relative="1" as="geometry" />
        </mxCell>
        <mxCell id="LM_VB-buuSbC90LUnMob-82" style="edgeStyle=orthogonalEdgeStyle;rounded=0;orthogonalLoop=1;jettySize=auto;html=1;entryX=0.5;entryY=0;entryDx=0;entryDy=0;exitX=0.5;exitY=1;exitDx=0;exitDy=0;" edge="1" parent="LM_VB-buuSbC90LUnMob-16" source="LM_VB-buuSbC90LUnMob-84" target="LM_VB-buuSbC90LUnMob-73">
          <mxGeometry relative="1" as="geometry" />
        </mxCell>
        <mxCell id="LM_VB-buuSbC90LUnMob-83" style="edgeStyle=orthogonalEdgeStyle;rounded=0;orthogonalLoop=1;jettySize=auto;html=1;entryX=0.5;entryY=0;entryDx=0;entryDy=0;exitX=0.5;exitY=1;exitDx=0;exitDy=0;" edge="1" parent="LM_VB-buuSbC90LUnMob-16" source="LM_VB-buuSbC90LUnMob-84" target="LM_VB-buuSbC90LUnMob-89">
          <mxGeometry relative="1" as="geometry" />
        </mxCell>
        <mxCell id="LM_VB-buuSbC90LUnMob-84" value="&lt;span style=&quot;color: rgb(61, 100, 172); font-family: Calibri; font-size: 11.29px;&quot;&gt;Réunir la cellule de crise&lt;/span&gt;" style="shape=process;whiteSpace=wrap;html=1;backgroundOutline=1;" vertex="1" parent="LM_VB-buuSbC90LUnMob-16">
          <mxGeometry x="410" y="40" width="120" height="60" as="geometry" />
        </mxCell>
        <mxCell id="LM_VB-buuSbC90LUnMob-85" value="" style="edgeStyle=orthogonalEdgeStyle;rounded=0;orthogonalLoop=1;jettySize=auto;html=1;" edge="1" parent="LM_VB-buuSbC90LUnMob-16" source="LM_VB-buuSbC90LUnMob-86" target="LM_VB-buuSbC90LUnMob-72">
          <mxGeometry relative="1" as="geometry" />
        </mxCell>
        <mxCell id="LM_VB-buuSbC90LUnMob-86" value="- Export des traces via les FW périmétrique&lt;br&gt;- Analyse" style="shape=document;whiteSpace=wrap;html=1;boundedLbl=1;" vertex="1" parent="LM_VB-buuSbC90LUnMob-16">
          <mxGeometry x="410" y="240" width="120" height="80" as="geometry" />
        </mxCell>
        <mxCell id="LM_VB-buuSbC90LUnMob-87" value="" style="edgeStyle=orthogonalEdgeStyle;rounded=0;orthogonalLoop=1;jettySize=auto;html=1;" edge="1" parent="LM_VB-buuSbC90LUnMob-16" source="LM_VB-buuSbC90LUnMob-88" target="LM_VB-buuSbC90LUnMob-73">
          <mxGeometry relative="1" as="geometry" />
        </mxCell>
        <mxCell id="LM_VB-buuSbC90LUnMob-88" value="- Dépot de plainte ?&lt;br&gt;- Déclaration CNIL ?&lt;br&gt;- Déclaration ANSSI ?&lt;br&gt;- Appel prestataires tiers ?&lt;br&gt;- Communications internes/publiques ?" style="shape=document;whiteSpace=wrap;html=1;boundedLbl=1;" vertex="1" parent="LM_VB-buuSbC90LUnMob-16">
          <mxGeometry x="560" y="240" width="200" height="110" as="geometry" />
        </mxCell>
        <mxCell id="LM_VB-buuSbC90LUnMob-89" value="&lt;span style=&quot;color: rgb(61, 100, 172); font-family: Calibri; font-size: 11.29px;&quot;&gt;Préparer les sauvegardes&lt;/span&gt;" style="shape=process;whiteSpace=wrap;html=1;backgroundOutline=1;" vertex="1" parent="LM_VB-buuSbC90LUnMob-16">
          <mxGeometry x="815" y="150" width="120" height="60" as="geometry" />
        </mxCell>
        <mxCell id="LM_VB-buuSbC90LUnMob-91" style="edgeStyle=orthogonalEdgeStyle;rounded=0;orthogonalLoop=1;jettySize=auto;html=1;entryX=0.5;entryY=1;entryDx=0;entryDy=0;" edge="1" parent="LM_VB-buuSbC90LUnMob-16" source="LM_VB-buuSbC90LUnMob-90" target="LM_VB-buuSbC90LUnMob-89">
          <mxGeometry relative="1" as="geometry" />
        </mxCell>
        <mxCell id="LM_VB-buuSbC90LUnMob-90" value="- identifier leurs emplacements&lt;br&gt;- Vérifierdisponibilité&lt;br&gt;- Vérifier timestamp&lt;br&gt;- Préparer la restauration dans un réseau privé" style="shape=document;whiteSpace=wrap;html=1;boundedLbl=1;" vertex="1" parent="LM_VB-buuSbC90LUnMob-16">
          <mxGeometry x="770" y="240" width="210" height="100" as="geometry" />
        </mxCell>
        <mxCell id="LM_VB-buuSbC90LUnMob-92" value="&lt;span style=&quot;font-size: 11.29px; font-family: Calibri; color: rgb(61, 100, 172);&quot;&gt;Contrôle outil de déchiffrement&lt;br&gt;&lt;/span&gt;" style="shape=process;whiteSpace=wrap;html=1;backgroundOutline=1;" vertex="1" parent="LM_VB-buuSbC90LUnMob-16">
          <mxGeometry x="1030" y="150" width="120" height="60" as="geometry" />
        </mxCell>
        <mxCell id="LM_VB-buuSbC90LUnMob-94" style="edgeStyle=orthogonalEdgeStyle;rounded=0;orthogonalLoop=1;jettySize=auto;html=1;entryX=0.5;entryY=1;entryDx=0;entryDy=0;" edge="1" parent="LM_VB-buuSbC90LUnMob-16" source="LM_VB-buuSbC90LUnMob-93" target="LM_VB-buuSbC90LUnMob-92">
          <mxGeometry relative="1" as="geometry" />
        </mxCell>
        <mxCell id="LM_VB-buuSbC90LUnMob-93" value="nomoreransom.org" style="shape=document;whiteSpace=wrap;html=1;boundedLbl=1;" vertex="1" parent="LM_VB-buuSbC90LUnMob-16">
          <mxGeometry x="1030" y="240" width="120" height="80" as="geometry" />
        </mxCell>
        <mxCell id="LM_VB-buuSbC90LUnMob-95" value="&lt;span style=&quot;font-size: 11.29px; font-family: Calibri; color: rgb(61, 100, 172);&quot;&gt;Analyse des premiers&amp;nbsp; ioC&lt;br&gt;&lt;/span&gt;" style="shape=process;whiteSpace=wrap;html=1;backgroundOutline=1;" vertex="1" parent="LM_VB-buuSbC90LUnMob-16">
          <mxGeometry x="1030" y="40" width="120" height="60" as="geometry" />
        </mxCell>
        <mxCell id="LM_VB-buuSbC90LUnMob-25" value="Playbook réalisé par Augmented Security Force - licence&amp;nbsp;CC0 1.0 UNIVERSAL" style="text;html=1;align=center;verticalAlign=middle;whiteSpace=wrap;rounded=0;" vertex="1" parent="WIyWlLk6GJQsqaUBKTNV-1">
          <mxGeometry x="42" y="500" width="350" height="30" as="geometry" />
        </mxCell>
        <mxCell id="LM_VB-buuSbC90LUnMob-26" value="Playbook réalisé par Augmented Security Force - licence&amp;nbsp;CC0 1.0 UNIVERSAL" style="text;html=1;align=center;verticalAlign=middle;whiteSpace=wrap;rounded=0;" vertex="1" parent="WIyWlLk6GJQsqaUBKTNV-1">
          <mxGeometry x="40" y="720" width="350" height="30" as="geometry" />
        </mxCell>
        <mxCell id="LM_VB-buuSbC90LUnMob-27" value="&lt;h1 style=&quot;margin-top: 0px;&quot;&gt;Ransomware&lt;/h1&gt;&lt;p style=&quot;text-align: justify;&quot;&gt;&lt;font style=&quot;font-size: 11px;&quot;&gt;Ce type de malware empêche les utilisateurs d&#39;accéder à leurs fichiers ou systèmes jusqu&#39;à ce qu&#39;un paiement soit effectué aux cybercriminels. La détection repose sur l&#39;identification de comportements typiques du ransomware, tels que le chiffrement rapide de multiples fichiers, la modification des extensions de fichiers, et l&#39;affichage de messages de rançon.&amp;nbsp;&lt;/font&gt;&lt;/p&gt;" style="text;html=1;whiteSpace=wrap;overflow=hidden;rounded=0;" vertex="1" parent="WIyWlLk6GJQsqaUBKTNV-1">
          <mxGeometry x="42" y="30" width="750" height="90" as="geometry" />
        </mxCell>
        <mxCell id="LM_VB-buuSbC90LUnMob-24" value="Playbook réalisé par Augmented Security Force - licence&amp;nbsp;CC0 1.0 UNIVERSAL" style="text;html=1;align=center;verticalAlign=middle;whiteSpace=wrap;rounded=0;" vertex="1" parent="WIyWlLk6GJQsqaUBKTNV-1">
          <mxGeometry x="40" y="1110" width="750" height="30" as="geometry" />
        </mxCell>
      </root>
    </mxGraphModel>
  </diagram>
</mxfile>
